# xmcd
#
# Track frame offsets:
#	150
#	15535
#	33899
#	48636
#	69529
#	90769
#	106275
#	118171
#	133301
#	151141
#	171401
#	190806
#	216969
#	241504
#	285239
#
# Disc length: 4085 seconds
#
# Revision: 0
# Processed by: cddbd v1.5.2PL0 Copyright (c) Steve Scherf et al.
# Submitted via: EZCDAudioConverter 2.3.2.1
#
DISCID=c40ff30f
DTITLE=Varios artistas - 'The Blues magazine 17-The best of 2014'
DYEAR=2014
DGENRE=Blues
TTITLE0=Thorbjorn RISAGER and The BLACK TORNADO - Too many roads
TTITLE1=Joe Louis WALKER - Hornet's nest
TTITLE2=Joanne Shaw TAYLOR - The dirty truth
TTITLE3=Joe BONAMASSA - Diferent shades of blue
TTITLE4=Kaz HAWKINS - Shake
TTITLE5=Bob CORRITORE  - Harmonica watusi
TTITLE6=The Robert CRAY Band - Nobody's fault but mine (cover Otis REDDING)
TTITLE7=Laurence JONES - Soul swamp river
TTITLE8=Selwyn BIRCHWOOD - Tell me why
TTITLE9=Bernie MARSDEN (+ David COVERDALE) - Trouble
TTITLE10=The MANISH BOYS - I hate love
TTITLE11=Walter TROUT - Born in the city
TTITLE12=SHOVELS and ROPE - Evil
TTITLE13=Matt SCHOFIELD - Red dragon
TTITLE14=Dave ALVIN and Phil ALVIN - Stuff they call money
EXTD=
EXTT0=
EXTT1=
EXTT2=
EXTT3=
EXTT4=
EXTT5=
EXTT6=
EXTT7=
EXTT8=
EXTT9=
EXTT10=
EXTT11=
EXTT12=
EXTT13=
EXTT14=
PLAYORDER=
